PathFileType	4	(X/Y/Z)	E:\Qualisys_Data\Carbon_Farble_Plate\Data\Amateur_Runner\S1\T2\S1T2V12_c3d.trc
DataRate	CameraRate	NumFrames	NumMarkers	Units	OrigDataRate	OrigDataStartFrame	OrigNumFrames
200.000000	200.000000	5	39	mm	200.000000	156	312
Frame#	Time	LSHO			RSHO			LICST			RICST			LASIS			LHEEL			RASIS			LTROC			RTROC			SACR			LTH1			LSK4			LTH2			LTH3			RHM5			LSK2			LTH4			RTH1			LTOE			RTH2			RTH3			RTH4			LLEP			RLEP			LSK1			LSK3			RSK1			LHM5			RSK2			LFT1			RSK3			RSK4			LLME			RLME			RTOE			RHEEL			RFT1			RFT2			LFT2			
		X1	Y1	Z1	X2	Y2	Z2	X3	Y3	Z3	X4	Y4	Z4	X5	Y5	Z5	X6	Y6	Z6	X7	Y7	Z7	X8	Y8	Z8	X9	Y9	Z9	X10	Y10	Z10	X11	Y11	Z11	X12	Y12	Z12	X13	Y13	Z13	X14	Y14	Z14	X15	Y15	Z15	X16	Y16	Z16	X17	Y17	Z17	X18	Y18	Z18	X19	Y19	Z19	X20	Y20	Z20	X21	Y21	Z21	X22	Y22	Z22	X23	Y23	Z23	X24	Y24	Z24	X25	Y25	Z25	X26	Y26	Z26	X27	Y27	Z27	X28	Y28	Z28	X29	Y29	Z29	X30	Y30	Z30	X31	Y31	Z31	X32	Y32	Z32	X33	Y33	Z33	X34	Y34	Z34	X35	Y35	Z35	X36	Y36	Z36	X37	Y37	Z37	X38	Y38	Z38	X39	Y39	Z39	

157	0.78	271.0955200195312	1526.3271484375	-504.9273071289062	177.8925628662109	1510.012084960938	-198.8431549072266	216.8650817871094	1046.483032226562	-494.1296997070312	201.8894653320312	1068.049194335938	-198.4621124267578	256.9967956542969	1004.864807128906	-467.4537048339844	-350.4397583007812	377.5053405761719	-415.3320007324219	235.969970703125	1020.55322265625	-205.7564239501953	135.8467254638672	935.8843994140624	-516.1201171875	132.2783508300781	927.343505859375	-177.8868713378906	88.95602416992188	1078.104736328125	-349.3611450195312	220.3927307128906	758.7048950195312	-473.4736938476562	-217.2822113037109	438.9313354492188	-442.5128479003906	148.7773590087891	772.6555786132812	-510.1919250488281	192.5250091552734	658.4893188476562	-459.4976806640625	534.2094116210938	119.9808197021484	-203.4458465576172	-127.0220336914062	478.105712890625	-476.5822448730469	116.0834579467773	677.1665649414062	-489.8028869628906	285.7140502929688	820.6350708007812	-193.4776763916016	-271.9695129394531	137.676513671875	-382.0711364746094	213.9832611083984	797.9139404296875	-163.0722808837891	315.4993591308594	723.310791015625	-196.9102325439453	238.6300811767578	700.7884521484375	-176.0410614013672	86.14584350585938	523.9005126953125	-457.8590698242188	327.2693481445312	559.7601928710938	-224.0000762939453	-92.90889739990234	402.85107421875	-464.3180541992188	-187.6286468505859	365.8298645019531	-460.8543395996094	365.0242919921875	375.2803039550781	-202.2271575927734	-326.4779663085938	177.3666839599609	-454.2379760742188	285.3741149902344	358.4273681640625	-209.2370147705078	-372.6685180664062	364.02978515625	-385.2864379882812	387.6444702148438	277.6804809570312	-214.8877105712891	309.9797668457031	262.52978515625	-230.9985198974609	-304.0114135742188	333.7141418457031	-458.6968994140625	389.1192016601562	138.1103210449219	-214.9067230224609	580.9923095703125	163.4779815673828	-277.3051452636719	341.7340698242188	75.32756042480469	-257.5614624023438	364.8309936523438	53.89098358154297	-291.2608032226562	358.6884765625	49.52233123779297	-234.5050811767578	-377.298583984375	357.7883911132812	-439.1779479980469
158	0.785	287.4994506835938	1523.495239257812	-503.9216613769531	194.3906707763672	1506.459716796875	-197.5105895996094	232.5193176269531	1043.133666992188	-493.9309997558594	217.3131408691406	1065.099731445312	-198.3062133789062	273.0036926269531	1002.028930664062	-466.9813537597656	-331.835205078125	384.013671875	-413.6625061035156	251.4175415039062	1017.933349609375	-205.3107604980469	152.9264526367188	931.9569091796876	-516.5342407226562	148.0396575927734	924.5457153320312	-178.0580291748047	104.5572662353516	1074.442260742188	-349.4815673828125	239.4487609863281	755.670654296875	-473.5611572265625	-196.4733276367188	441.3335266113281	-441.8825988769531	167.5127716064453	768.4938354492188	-510.1454772949219	213.7701568603516	655.0258178710938	-460.5391235351562	544.2085571289062	115.0802917480469	-204.9160003662109	-105.8471374511719	478.2976684570312	-475.7488098144531	136.5105133056641	672.6593627929688	-489.7249755859375	302.3388671875	819.3945922851562	-192.8126678466797	-258.3252563476562	141.7267456054688	-381.9241638183594	229.7549743652344	795.84765625	-163.2129821777344	332.8351440429688	722.2013549804688	-195.2918090820312	255.3052520751953	699.2034912109375	-177.3987121582031	108.0796203613281	519.4613647460938	-458.3905639648438	343.2846374511719	557.058349609375	-224.4633483886719	-73.8775863647461	402.6708068847656	-464.5941772460938	-169.1931304931641	367.5032348632812	-460.8090515136719	378.0656127929688	371.1914367675781	-202.9301605224609	-311.9722290039062	182.9815826416016	-454.0058288574219	298.067626953125	355.5360717773438	-209.9417572021484	-353.4429626464844	370.7715759277344	-384.2377014160156	399.4674682617188	273.8871154785156	-215.746337890625	321.5923156738281	258.8832397460938	-232.6334686279297	-286.19091796875	338.8484802246094	-458.3383483886719	399.1460571289062	133.4385070800781	-215.1919860839844	590.38671875	158.2850646972656	-278.343505859375	350.9932556152344	71.42961883544922	-257.9679870605469	373.6658935546875	50.28772354125977	-291.7942810058594	367.7754516601562	45.50712585449219	-234.8419036865234	-358.7352600097656	364.2932739257812	-438.6651000976562
159	0.79	303.4159240722656	1520.010131835938	-502.5693664550781	210.8966522216797	1502.747192382812	-196.2028350830078	248.4920654296875	1039.697021484375	-493.8251647949219	225.7610015869141	1062.591064453125	-198.5533294677734	289.0453491210938	998.6390380859376	-466.6435241699219	-312.041015625	389.6864624023438	-412.9944763183594	266.8097839355469	1015.158081054688	-204.6719665527344	169.8078155517578	927.4889526367188	-516.7437133789062	163.3850860595703	921.5413818359376	-178.3169097900391	120.2975463867188	1070.417724609375	-350.2163696289062	258.7587585449219	752.6303100585938	-473.9329833984375	-175.443359375	443.4482421875	-441.0152282714844	185.0349884033203	762.7820434570312	-509.4838562011719	234.4750061035156	651.0706787109375	-460.7498474121094	552.7959594726562	108.632682800293	-205.9507904052734	-84.08829498291016	478.4780883789062	-475.366455078125	156.8144989013672	667.989501953125	-489.9231262207031	318.8805236816406	818.1900634765625	-191.4055633544922	-243.8065795898438	145.9823303222656	-382.1120910644531	245.5411376953125	793.560302734375	-164.4219055175781	350.2720031738281	721.064453125	-194.1150970458984	272.0862731933594	697.3132934570312	-179.0012512207031	130.0683898925781	514.45166015625	-458.767333984375	358.6183471679688	553.91552734375	-225.0915832519531	-54.49837493896484	402.5837707519531	-464.790771484375	-149.9597015380859	369.57275390625	-460.9799194335938	390.7770080566406	366.650634765625	-203.4050750732422	-296.8041076660156	188.5636138916016	-453.8402404785156	310.3299560546875	352.4699096679688	-210.1787261962891	-333.8594970703125	376.8883972167969	-383.4905700683594	410.5252990722656	268.94189453125	-216.3568420410156	332.2587890625	256.3135375976562	-232.5643463134766	-267.5832824707031	343.3948364257812	-457.9325561523438	408.0041198730469	129.7340240478516	-216.3111877441406	599.0137329101562	152.3571014404297	-279.9332580566406	359.7552795410156	69.76390838623047	-259.14208984375	381.119873046875	48.27333450317383	-292.6414184570312	374.9111633300781	44.9123649597168	-236.0731658935547	-339.5022583007812	370.7825012207031	-437.4804992675781
160	0.795	319.6543273925781	1516.837646484375	-501.6697998046875	227.2561798095703	1498.584228515625	-194.845458984375	264.3111877441406	1035.654541015625	-493.86376953125	241.9866638183594	1059.415161132812	-198.6466522216797	305.0069580078125	995.4428100585938	-466.0849304199219	-291.4187927246094	395.2942199707031	-412.082763671875	283.1333312988281	1012.461975097656	-204.2652282714844	186.6199951171875	922.5817260742188	-516.7369995117188	178.8995819091797	918.5586547851562	-178.5606384277344	135.5591583251953	1066.347045898438	-350.6123352050781	277.832275390625	748.9835205078125	-474.0932006835938	-153.9899597167969	445.2488403320312	-440.1488037109375	203.6350708007812	758.3367309570312	-509.6339111328125	255.2783508300781	647.2199096679688	-461.5151672363281	559.1836547851562	101.1793899536133	-207.3971862792969	-61.89166641235352	478.3549499511719	-474.5817565917969	177.022216796875	662.7127685546875	-489.9183349609375	335.7979125976562	816.6207275390625	-189.7237396240234	-228.8950500488281	149.9385375976562	-382.2297058105469	262.0455627441406	791.2611694335938	-165.0157012939453	367.7289428710938	719.7182006835938	-193.5921783447266	288.8793029785156	695.7638549804688	-180.5168304443359	153.2179260253906	509.4770812988281	-459.8198852539062	374.4011840820312	550.373046875	-225.1516723632812	-33.74101638793945	400.7490844726562	-463.6844787597656	-130.6715698242188	371.0187072753906	-460.5090637207031	402.9077453613281	361.9483032226562	-203.7624816894531	-280.906494140625	193.7498168945312	-453.6181945800781	322.5673217773438	349.05517578125	-211.3643188476562	-313.3029174804688	382.7315063476562	-382.5496826171875	421.0303955078125	263.7893676757812	-217.0835876464844	342.6239624023438	251.9657287597656	-233.5115509033203	-248.5486602783203	347.7545471191406	-457.2706909179688	416.4078063964844	125.8838500976562	-217.4007568359375	607.6097412109375	143.5878295898438	-281.7458190917969	365.1056518554688	73.72213745117188	-260.4495544433594	385.6520080566406	49.39915466308594	-292.8236083984375	379.2603149414062	47.13198471069336	-236.7565155029297	-319.249755859375	377.1589660644531	-436.6709899902344
161	0.8	335.8928527832031	1513.335571289062	-500.4921264648438	243.9593811035156	1494.233276367188	-193.7063293457031	280.0655517578125	1031.615478515625	-493.8580627441406	257.1882934570312	1056.32421875	-198.5457763671875	320.9118957519531	991.5086059570312	-466.080810546875	-270.017578125	400.4957885742188	-411.1889343261719	300.7254943847656	1009.860534667969	-204.2906036376953	203.3256530761719	917.6506958007812	-516.835693359375	194.447998046875	915.1234130859376	-178.4933471679688	151.1913909912109	1061.929443359375	-350.9193115234375	296.6445007324219	745.7229614257812	-474.6730346679688	-131.9839172363281	446.8375549316406	-439.4031677246094	222.4007415771484	753.8867797851562	-509.8524780273438	275.9879455566406	643.0879516601562	-462.3667907714844	564.6947021484375	91.84764862060548	-208.7778625488281	-39.42364501953125	477.9748229980469	-474.0414123535156	197.2953186035156	657.4129028320312	-490.182861328125	352.7336120605469	814.9472045898438	-188.1314544677734	-212.9930877685547	153.4659729003906	-382.5477600097656	278.1195983886719	788.7919311523438	-165.9838256835938	384.9174499511719	718.0826416015625	-193.0790710449219	305.3165893554688	693.4891967773438	-181.59423828125	176.0171203613281	504.8115234375	-460.8284606933594	389.294677734375	546.5597534179688	-224.853515625	-12.61773014068604	399.39990234375	-464.1797180175781	-109.8872299194336	372.0711975097656	-460.0410766601562	414.4893188476562	356.7387084960938	-204.1842346191406	-264.4688110351562	198.5007171630859	-452.9712524414062	333.9468383789062	345.4207458496094	-211.7483825683594	-291.7855224609375	388.6708068847656	-381.1746520996094	430.7636108398438	258.2398071289062	-217.8698425292969	352.2059020996094	248.2687530517578	-235.0161743164062	-228.813232421875	352.3766784667969	-456.7005310058594	424.0718383789062	121.5011520385742	-218.4891357421875	614.782958984375	132.1319885253906	-283.2214660644531	370.4677734375	76.91986846923828	-260.5429382324219	388.9324951171875	48.78356552124023	-292.2409057617188	383.0038452148438	46.99919891357422	-236.8315734863281	-298.3508911132812	383.3285827636719	-435.4382934570312
